<?xml version="1.0" standalone="no"?>
<!DOCTYPE svg PUBLIC "-//W3C//DTD SVG 20010904//EN"
 "http://www.w3.org/TR/2001/REC-SVG-20010904/DTD/svg10.dtd">
<svg version="1.0" xmlns="http://www.w3.org/2000/svg"
 width="512.000000pt" height="512.000000pt" viewBox="0 0 512.000000 512.000000"
 preserveAspectRatio="xMidYMid meet">

<g transform="translate(0.000000,512.000000) scale(0.100000,-0.100000)"
fill="#000000" stroke="none">
<path d="M1520 4720 l0 -80 1040 0 1040 0 0 80 0 80 -1040 0 -1040 0 0 -80z"/>
<path d="M3760 4720 l0 -80 80 0 80 0 0 80 0 80 -80 0 -80 0 0 -80z"/>
<path d="M1044 4471 c-47 -12 -133 -62 -160 -94 -14 -17 -37 -53 -52 -81 l-27
-51 -3 -361 -3 -362 -162 -4 c-152 -4 -165 -5 -213 -30 -75 -39 -107 -70 -145
-140 l-34 -63 -3 -386 -3 -386 -65 -64 c-35 -35 -64 -67 -64 -70 0 -9 100
-109 109 -109 3 0 45 38 91 85 l85 85 5 409 c5 394 6 411 26 437 47 64 62 69
225 72 l149 3 0 -143 0 -142 -67 -68 -68 -68 58 -57 57 -58 193 193 c172 171
197 192 226 192 45 0 91 -46 91 -91 0 -29 -23 -55 -205 -239 -234 -235 -233
-235 -168 -312 20 -23 48 -68 62 -98 22 -47 26 -69 26 -150 0 -152 -12 -170
-278 -438 l-222 -222 58 -57 57 -58 89 89 90 89 3 -344 3 -344 27 -51 c40 -76
70 -107 140 -145 l63 -34 963 -3 962 -2 0 80 0 80 -720 0 -720 0 0 80 0 80
720 0 720 0 0 80 0 80 -948 2 -949 3 -37 29 c-62 47 -66 66 -66 332 l0 236 60
66 c163 178 197 428 85 628 l-33 59 173 175 c163 165 174 179 190 234 28 95 6
184 -60 251 -100 99 -247 97 -360 -6 l-56 -52 3 491 c3 478 4 491 24 518 11
15 33 37 48 48 27 21 28 21 1752 24 1907 2 1766 7 1820 -64 l29 -37 3 -1149 2
-1148 80 0 80 0 -2 1163 -3 1162 -34 63 c-38 70 -69 100 -145 140 l-51 27
-1745 2 c-960 0 -1759 -2 -1776 -6z m-5 -3337 c29 -9 93 -14 183 -14 l138 0 0
-81 0 -80 -148 3 c-146 3 -149 3 -186 32 -43 32 -66 78 -66 132 0 31 3 35 18
29 9 -4 37 -14 61 -21z"/>
<path d="M3311 4070 c-51 -22 -100 -48 -107 -57 -10 -13 -14 -44 -12 -111 2
-83 0 -95 -20 -114 -19 -20 -30 -22 -114 -19 -115 3 -121 -2 -172 -128 -51
-127 -50 -133 34 -211 55 -51 70 -71 70 -94 0 -22 -15 -42 -70 -93 -56 -52
-70 -71 -70 -94 0 -43 67 -201 98 -228 24 -22 31 -23 112 -17 83 7 86 6 110
-19 22 -24 24 -32 21 -113 -2 -73 1 -92 16 -111 21 -25 193 -101 231 -101 18
0 43 20 90 70 88 95 107 95 187 5 31 -36 68 -68 82 -71 32 -8 208 60 242 94
23 23 23 27 17 116 -7 88 -6 93 17 114 23 22 30 23 115 16 86 -6 91 -6 114 17
34 34 102 210 94 242 -3 14 -35 51 -71 82 -90 80 -90 99 5 187 51 47 70 71 70
90 0 38 -75 210 -101 231 -19 15 -38 18 -111 16 -81 -3 -89 -1 -113 21 -25 24
-26 27 -19 110 6 81 5 88 -17 113 -28 30 -184 97 -227 97 -24 0 -43 -14 -95
-70 -51 -55 -71 -70 -93 -70 -23 0 -43 15 -94 70 -79 85 -87 86 -219 30z m222
-250 c36 -13 148 -13 182 0 14 5 48 34 74 62 45 49 51 52 77 43 l29 -10 -4
-83 -3 -83 71 -72 70 -72 87 0 c86 0 87 -1 96 -27 8 -24 3 -32 -52 -86 l-62
-60 4 -102 3 -102 59 -52 c55 -49 58 -54 49 -82 l-9 -28 -83 3 -83 3 -75 -75
-75 -75 3 -83 3 -83 -28 -9 c-26 -9 -32 -5 -85 52 l-57 61 -99 0 -99 0 -59
-61 c-53 -54 -61 -59 -85 -51 -26 9 -27 10 -27 96 l0 87 -72 70 -72 71 -83 -3
-83 -4 -10 29 c-9 26 -6 32 43 77 62 57 72 80 72 163 0 88 -13 118 -76 171
l-54 46 16 31 15 30 69 -7 c81 -8 104 1 171 72 66 68 72 83 64 163 -7 68 -7
69 22 84 28 15 28 15 78 -39 28 -30 63 -59 78 -65z"/>
<path d="M3527 3616 c-155 -56 -234 -223 -180 -382 25 -74 113 -157 188 -180
232 -67 441 144 369 372 -24 77 -105 162 -178 187 -59 20 -147 21 -199 3z
m169 -165 c35 -21 64 -75 64 -118 0 -61 -72 -133 -133 -133 -74 0 -137 61
-137 133 0 107 116 173 206 118z"/>
<path d="M1440 3920 l0 -80 80 0 80 0 0 80 0 80 -80 0 -80 0 0 -80z"/>
<path d="M1760 3920 l0 -80 400 0 400 0 0 80 0 80 -400 0 -400 0 0 -80z"/>
<path d="M1280 3600 l0 -80 640 0 640 0 0 80 0 80 -640 0 -640 0 0 -80z"/>
<path d="M1600 3280 l0 -80 480 0 480 0 0 80 0 80 -480 0 -480 0 0 -80z"/>
<path d="M1600 2960 l0 -80 400 0 400 0 0 80 0 80 -400 0 -400 0 0 -80z"/>
<path d="M2160 2080 l0 -320 -80 0 -80 0 0 200 0 200 -80 0 -80 0 0 -200 0
-200 -80 0 -80 0 0 120 0 120 -80 0 -80 0 0 -120 0 -120 -80 0 -80 0 0 -80 0
-80 880 0 880 0 0 80 0 80 -80 0 -80 0 0 120 0 120 -80 0 -80 0 0 -120 0 -120
-80 0 -80 0 0 200 0 200 -80 0 -80 0 0 -200 0 -200 -80 0 -80 0 0 320 0 320
-80 0 -80 0 0 -320z"/>
<path d="M3600 2387 c-49 -16 -133 -102 -148 -153 -8 -29 -12 -146 -12 -392
l0 -351 -72 -38 c-261 -137 -327 -445 -144 -666 18 -22 100 -85 181 -141 82
-56 158 -114 169 -129 19 -26 21 -45 24 -193 l3 -164 81 0 80 0 -4 177 c-6
255 -20 279 -247 432 -82 56 -162 117 -176 136 -31 40 -55 112 -55 165 0 82
57 182 129 223 l31 18 0 -135 0 -136 80 0 80 0 0 575 0 576 25 24 c15 16 36
25 55 25 19 0 40 -9 55 -25 l25 -24 0 -336 0 -335 80 0 80 0 0 175 c0 173 0
176 25 200 15 16 36 25 55 25 19 0 40 -9 55 -25 25 -24 25 -24 25 -240 l0
-215 80 0 80 0 0 175 c0 173 0 176 25 200 15 16 36 25 55 25 19 0 40 -9 55
-25 25 -24 25 -24 25 -240 l0 -215 80 0 80 0 0 95 c0 88 2 98 25 120 15 16 36
25 55 25 19 0 40 -9 55 -25 25 -24 25 -25 25 -222 0 -301 -30 -472 -113 -663
l-41 -95 -4 -218 -3 -217 81 0 80 0 0 189 c0 186 0 190 29 257 41 97 88 253
107 359 22 121 32 556 14 621 -30 107 -143 183 -256 171 -50 -5 -54 -4 -54 15
0 51 -26 105 -75 153 -71 71 -157 93 -245 61 -34 -13 -36 -12 -82 29 -56 50
-118 70 -188 62 l-50 -6 0 61 c0 85 -17 132 -67 188 -65 72 -158 97 -253 67z"/>
</g>
</svg>
